<?xml version="1.0" standalone="no"?>
<!DOCTYPE svg PUBLIC "-//W3C//DTD SVG 20010904//EN"
 "http://www.w3.org/TR/2001/REC-SVG-20010904/DTD/svg10.dtd">
<svg version="1.0" xmlns="http://www.w3.org/2000/svg"
 width="512.000000pt" height="512.000000pt" viewBox="0 0 512.000000 512.000000"
 preserveAspectRatio="xMidYMid meet">
<metadata>
Created by potrace 1.14, written by Peter Selinger 2001-2017
</metadata>
<g transform="translate(0.000000,512.000000) scale(0.100000,-0.100000)"
fill="#000000" stroke="none">
<path d="M2417 4914 c-1 -1 -51 -4 -112 -8 -60 -3 -121 -8 -135 -10 -14 -2
-52 -7 -85 -11 -51 -5 -150 -23 -230 -42 -11 -2 -31 -6 -44 -9 -46 -10 -177
-64 -221 -92 -61 -39 -106 -86 -140 -146 -27 -47 -38 -82 -56 -176 -3 -19 -7
-178 -8 -352 l-2 -318 590 -2 591 -3 0 -102 c0 -96 -1 -103 -20 -104 -11 0
-411 0 -890 -1 -478 0 -901 -5 -940 -10 -120 -15 -249 -64 -335 -126 -56 -41
-152 -146 -188 -205 -69 -114 -113 -257 -156 -507 -38 -221 -37 -459 4 -680 7
-36 14 -76 17 -90 30 -169 85 -328 156 -454 40 -72 156 -181 232 -218 114 -57
142 -61 453 -63 l282 -3 0 102 c0 55 1 229 3 386 4 279 5 287 31 365 44 130
107 229 202 320 79 76 104 93 201 140 141 69 141 69 808 70 688 2 667 0 837
91 46 25 134 112 173 169 41 63 84 170 93 235 4 25 6 322 6 660 0 670 0 667
-58 790 -21 45 -53 88 -106 140 -146 147 -268 198 -600 251 -61 9 -345 20
-353 13z m-460 -480 c78 -35 123 -100 131 -187 6 -68 -19 -128 -74 -176 -183
-161 -446 50 -335 267 51 100 174 143 278 96z"/>
<path d="M3741 3398 c0 -374 -2 -411 -33 -508 -86 -273 -330 -485 -603 -526
-27 -4 -318 -8 -645 -9 -594 -1 -595 -1 -660 -24 -162 -58 -280 -160 -348
-301 -22 -47 -46 -112 -53 -145 -8 -44 -12 -229 -12 -675 0 -542 2 -623 17
-680 33 -129 99 -227 213 -318 53 -42 88 -62 195 -113 29 -14 169 -47 273 -64
55 -10 109 -19 120 -21 23 -5 353 -4 405 0 19 2 71 7 115 10 324 29 572 108
682 216 111 112 130 201 132 626 2 282 1 302 -16 305 -10 3 -276 4 -590 4
l-573 -1 -1 33 c0 18 0 58 0 88 0 30 0 63 0 73 1 17 43 18 879 18 482 1 902 3
932 4 194 12 404 122 518 273 62 83 127 221 147 313 2 10 15 71 29 135 52 242
65 555 32 726 -3 11 -8 43 -11 70 -4 26 -16 84 -26 128 -10 44 -20 91 -23 105
-2 14 -16 60 -29 102 -84 254 -219 405 -426 476 -36 12 -108 16 -343 19 l-297
5 0 -344z m-599 -2506 c41 -17 103 -86 116 -130 7 -22 12 -58 12 -81 0 -149
-169 -255 -305 -192 -139 63 -174 234 -72 346 24 26 60 52 82 61 43 15 124 13
167 -4z"/>
</g>
</svg>
